 
<svg version="1.0" xmlns="http://www.w3.org/2000/svg"
 width="323.000000pt" height="217.000000pt" viewBox="0 0 323.000000 217.000000"
 preserveAspectRatio="xMidYMid meet">
<g transform="translate(0.000000,217.000000) scale(0.100000,-0.100000)"
fill="#000000" stroke="none">
<path d="M0 1085 l0 -1085 1615 0 1615 0 0 1085 0 1085 -1615 0 -1615 0 0
-1085z m3198 3 l-3 -1053 -1575 0 -1575 0 -3 1053 -2 1052 1580 0 1580 0 -2
-1052z"/>
<path d="M1160 1935 c0 -8 9 -15 19 -15 11 0 23 -4 26 -10 6 -9 -10 -298 -21
-387 -4 -33 -10 -42 -26 -45 -12 -2 -23 -9 -26 -15 -3 -10 16 -13 72 -13 75 0
101 13 51 26 -24 6 -25 9 -24 83 1 42 4 128 8 191 6 107 7 113 18 80 40 -112
151 -355 164 -358 14 -2 44 68 134 305 l31 81 13 -151 c7 -84 15 -168 18 -188
5 -35 3 -37 -26 -44 -60 -13 -30 -25 64 -25 96 0 119 10 67 28 l-28 10 -17
208 c-10 114 -14 211 -10 215 5 4 17 9 27 11 11 1 21 9 24 16 3 9 -15 12 -65
12 l-70 0 -71 -185 c-40 -101 -72 -190 -72 -197 -1 -7 -15 25 -33 72 -18 47
-53 136 -77 198 l-43 112 -64 0 c-49 0 -63 -3 -63 -15z"/>
<path d="M1867 1806 c-26 -7 -50 -15 -52 -18 -3 -3 -3 -24 1 -47 5 -31 11 -41
25 -41 14 0 19 7 19 28 0 39 12 52 51 58 54 9 79 -18 82 -86 l2 -55 -55 -6
c-104 -12 -145 -44 -145 -111 0 -31 6 -45 28 -64 35 -30 99 -32 144 -4 32 19
33 19 43 0 8 -15 21 -20 50 -20 55 0 64 26 15 43 -6 2 -12 64 -15 145 -5 128
-7 144 -27 163 -27 27 -99 34 -166 15z"/>
<path d="M300 1316 c0 -8 10 -16 23 -18 22 -3 22 -4 25 -219 l2 -217 -25 -6
c-14 -4 -25 -11 -25 -16 0 -6 67 -10 175 -10 l175 0 0 49 c0 90 -23 109 -41
36 l-11 -45 -84 0 -84 0 2 212 3 212 24 6 c14 3 26 11 29 18 3 9 -21 12 -92
12 -77 0 -96 -3 -96 -14z"/>
<path d="M1635 1207 c-23 -17 -43 -22 -105 -23 -102 -1 -141 -23 -163 -96 -9
-28 13 -87 38 -104 24 -15 24 -17 9 -46 -13 -24 -14 -36 -5 -55 10 -22 8 -28
-19 -53 -41 -38 -41 -85 -1 -124 24 -23 41 -29 95 -33 136 -11 225 59 200 155
-9 31 -47 49 -130 62 -98 15 -106 18 -102 43 3 20 8 22 49 19 94 -7 165 53
155 131 -2 21 -11 46 -20 56 -23 25 -21 28 24 35 41 6 50 22 28 44 -16 16 -18
15 -53 -11z m-70 -72 c33 -32 35 -98 3 -132 -30 -32 -81 -31 -113 2 -54 53
-18 155 55 155 19 0 40 -9 55 -25z m-24 -305 c89 -17 111 -71 45 -111 -69 -42
-166 -11 -166 52 0 68 21 78 121 59z"/>
<path d="M1121 1190 c-18 -4 -46 -18 -62 -29 l-29 -22 0 27 c0 26 -1 26 -52
20 -67 -9 -94 -30 -49 -39 l31 -6 0 -140 0 -139 -25 -6 c-52 -13 -23 -26 60
-26 86 0 109 11 60 30 -25 9 -25 11 -25 124 0 104 2 117 21 134 43 41 121 35
132 -10 4 -13 7 -73 7 -134 0 -111 0 -112 -25 -118 -53 -13 -23 -26 61 -26 64
0 85 3 82 13 -3 6 -14 13 -26 15 -21 3 -22 8 -22 133 0 167 -9 187 -90 204 -8
1 -30 -1 -49 -5z"/>
<path d="M1857 1186 c-79 -29 -117 -88 -117 -181 0 -113 67 -185 172 -185 40
0 70 11 100 38 26 22 12 33 -20 16 -32 -16 -95 -18 -123 -4 -24 14 -45 54 -54
107 l-7 42 114 3 113 3 -3 45 c-4 51 -24 95 -50 109 -34 18 -87 21 -125 7z"/>
<path d="M2285 1186 c-16 -7 -39 -23 -50 -36 l-20 -22 -5 28 c-5 28 -7 29 -60
26 -63 -4 -85 -23 -40 -35 l30 -8 0 -138 0 -139 -25 -6 c-55 -14 -22 -26 70
-26 96 0 123 12 63 28 l-33 8 -3 94 c-3 103 7 140 46 170 35 28 49 25 56 -15
12 -65 46 -39 46 35 0 50 -20 60 -75 36z"/>
<path d="M2771 1190 c-80 -19 -124 -77 -129 -168 -6 -113 45 -185 140 -198 56
-8 86 -1 121 27 35 26 25 44 -13 24 -34 -17 -93 -20 -121 -5 -24 14 -45 54
-54 107 l-7 42 114 3 113 3 -3 39 c-5 65 -27 105 -66 121 -39 16 -45 17 -95 5z"/>
<path d="M731 1181 c-42 -7 -51 -28 -17 -37 l26 -6 0 -138 0 -138 -25 -6 c-52
-13 -23 -26 60 -26 55 0 85 4 85 11 0 6 -9 13 -20 16 -18 5 -20 15 -22 167
l-3 161 -25 1 c-14 1 -40 -1 -59 -5z"/>
<path d="M2475 1185 c-5 -2 -22 -6 -37 -9 -35 -8 -36 -22 -3 -30 l25 -6 0
-139 0 -139 -25 -6 c-52 -13 -23 -26 60 -26 69 0 85 3 85 15 0 8 -9 15 -20 15
-18 0 -20 8 -22 163 l-3 162 -25 2 c-14 1 -29 0 -35 -2z"/>
<path d="M388 737 c-53 -10 -65 -34 -20 -39 26 -3 27 -5 30 -71 3 -68 3 -69
-20 -60 -13 4 -47 8 -76 7 -42 0 -59 -6 -90 -31 -54 -43 -67 -76 -67 -163 0
-61 4 -82 23 -113 42 -67 116 -86 191 -47 39 19 39 19 44 0 4 -16 14 -20 49
-20 59 0 79 19 38 36 l-30 13 0 244 c0 187 -3 246 -12 249 -7 2 -34 0 -60 -5z
m-14 -203 c13 -5 16 -27 16 -135 0 -121 -1 -129 -22 -143 -34 -24 -90 -20
-116 7 -56 60 -47 230 15 266 20 12 83 14 107 5z"/>
<path d="M759 717 c-8 -8 -50 -116 -94 -242 -73 -209 -82 -228 -107 -237 -49
-17 -30 -28 48 -28 56 0 75 3 72 13 -3 6 -15 13 -27 15 -12 2 -21 9 -18 15 2
7 13 38 23 70 l18 58 84 -3 84 -3 19 -50 c33 -85 33 -83 -1 -90 -61 -13 -27
-25 72 -25 104 0 113 5 58 34 -17 8 -46 71 -116 245 -51 128 -95 235 -97 238
-3 2 -11 -2 -18 -10z"/>
<path d="M1247 566 c-21 -8 -47 -22 -58 -32 -18 -17 -19 -16 -19 11 0 28 0 28
-52 21 -67 -9 -94 -30 -49 -39 l31 -6 0 -140 0 -139 -25 -6 c-52 -13 -23 -26
60 -26 87 0 104 8 60 28 -25 11 -25 13 -25 131 l0 119 44 21 c47 23 87 18 100
-14 3 -9 6 -70 6 -135 0 -109 -1 -118 -20 -123 -11 -3 -20 -10 -20 -16 0 -7
29 -11 80 -11 82 0 103 12 55 30 l-26 10 3 116 c3 113 4 117 30 137 32 24 74
25 96 3 14 -13 18 -42 21 -136 l3 -120 -26 -10 c-50 -19 -28 -30 59 -30 82 0
112 13 61 26 -23 6 -24 8 -28 144 -3 128 -5 141 -26 163 -42 45 -119 42 -169
-5 -23 -22 -25 -22 -35 -5 -9 17 -66 48 -85 47 -4 -1 -25 -7 -46 -14z"/>
<path d="M2854 566 c-17 -8 -40 -26 -52 -41 l-22 -28 0 38 0 38 -52 -7 c-29
-4 -59 -13 -67 -21 -11 -11 -8 -14 18 -20 l31 -7 0 -138 0 -138 -25 -6 c-55
-14 -22 -26 70 -26 96 0 123 12 63 28 l-33 8 -3 94 c-3 103 7 140 46 170 35
28 49 25 56 -15 12 -65 46 -39 46 35 0 51 -20 60 -76 36z"/>
<path d="M2256 561 c-18 -4 -32 -15 -38 -31 -7 -19 -6 -22 2 -14 7 7 20 10 30
7 17 -4 19 -19 22 -138 3 -126 4 -135 28 -160 22 -24 31 -26 78 -23 33 3 64
13 82 26 37 28 48 28 52 -1 3 -19 9 -22 52 -22 54 0 75 20 32 31 l-26 6 0 159
c0 179 1 176 -71 162 -49 -10 -62 -29 -25 -39 26 -6 26 -6 26 -118 l0 -111
-33 -22 c-43 -30 -91 -30 -111 -1 -13 18 -16 52 -16 160 l0 138 -27 -1 c-16
-1 -41 -4 -57 -8z"/>
</g>
</svg>
