<svg xmlns="http://www.w3.org/2000/svg" width="323" height="217" version="1.1">
<path fill="rgb(0,0,0)" stroke="rgb(0,0,0)" stroke-width="1" opacity="1" d="M 116 22 L 129 23 L 143.5 61 L 158 23 L 171 22 L 169.5 25 L 166 25.5 L 166 35.5 L 167 36.5 L 167 47.5 L 168 48.5 L 169 69 L 175 70.5 L 173.5 72 L 156 72 Q 154.7 68.7 159.5 70 L 162 69 L 158.5 30 L 157 36.5 L 142.5 70 L 140 68.5 L 124.5 30 L 122 67.5 L 128 70 L 127.5 72 L 113 72 Q 111.9 69.3 114.5 70 L 119 67.5 L 121 25 Q 117.2 26 116 23.5 L 116 22 Z "/><path fill="rgb(0,0,0)" stroke="rgb(0,0,0)" stroke-width="1" opacity="1" d="M 193.5 35 Q 201.2 34.3 204 38.5 L 206 42.5 L 206 69 L 211 70 Q 212.3 73.3 207.5 72 L 203.5 73 L 201 72 L 199.5 69 Q 196.1 74.1 186.5 73 L 180 68.5 L 179 63.5 L 183.5 56 L 192.5 53 L 200 53 Q 201.8 42 195.5 38 L 186 39 Q 187.8 45.1 184.5 47 L 182 45.5 Q 183.2 40.7 181 39.5 L 183.5 37 L 193.5 35 Z M 197 55 L 190 57 L 186 62 L 187 68 L 192 70 L 199 67 L 200 66 L 200 56 L 197 55 Z "/><path fill="rgb(0,0,0)" stroke="rgb(0,0,0)" stroke-width="1" opacity="1" d="M 74.5 83 Q 79 82 80 84.5 L 81 87.5 L 80 90 L 74.5 91 L 72 85.5 L 74.5 83 Z "/><path fill="rgb(0,0,0)" stroke="rgb(0,0,0)" stroke-width="1" opacity="1" d="M 246.5 83 Q 251 82 252 84.5 L 253 87.5 L 252 90 L 246.5 91 L 244 85.5 L 246.5 83 Z "/><path fill="rgb(0,0,0)" stroke="rgb(0,0,0)" stroke-width="1" opacity="1" d="M 30 84 L 41.5 85 L 48 84 L 46.5 87 L 43 87.5 L 43 130 L 59.5 130 L 60 128.5 L 62 122 Q 65.3 120.7 64 125.5 L 65 126.5 L 65 134 L 30.5 134 L 30 132 L 36 129.5 L 36 88.5 L 34.5 87 Q 30.8 87.8 30 85.5 L 30 84 Z "/><path fill="rgb(0,0,0)" stroke="rgb(0,0,0)" stroke-width="1" opacity="1" d="M 167.5 94 Q 170 95.2 169 99 L 161 100 Q 159.9 102.7 162.5 102 Q 166 105 166 111.5 L 161.5 119 Q 157.4 122.9 148.5 122 L 146.5 121 L 144 124.5 L 146.5 127 L 157.5 128 L 164.5 130 L 168 133.5 L 169 138.5 L 164.5 146 L 159.5 149 L 147.5 150 L 140.5 148 L 137 144.5 L 136 138.5 L 141.5 132 L 143 131.5 L 140 127.5 L 143 120.5 L 137 114.5 L 137 106.5 L 141.5 101 L 145.5 99 L 152.5 98 L 158.5 100 L 167.5 94 Z M 148 101 L 143 107 L 144 116 L 151 120 L 158 117 L 160 112 L 159 106 Q 157 99 148 101 Z M 146 132 L 141 139 L 142 143 Q 145 147 152 148 L 159 146 L 163 141 L 162 138 L 158 134 L 146 132 Z "/><path fill="rgb(0,0,0)" stroke="rgb(0,0,0)" stroke-width="1" opacity="1" d="M 77.5 98 L 81 99.5 L 81 130.5 L 83.5 131 L 86 132 L 85.5 134 L 70 134 Q 68.9 131.3 71.5 132 L 75 131 L 75 103.5 L 73.5 102 Q 67.7 103.7 69 100 L 77.5 98 Z "/>
<path fill="rgb(0,0,0)" stroke="rgb(0,0,0)" stroke-width="1" opacity="1" d="M 99.5 98 L 103 99.5 L 102 101.5 Q 103.8 104.8 105.5 101 Q 110 96.5 120.5 98 L 125 102.5 L 126 106.5 L 126 131 L 131 132 L 130.5 134 L 115 134 L 116.5 131 L 119 130.5 L 119 106.5 L 116.5 103 L 109.5 102 L 103 106.5 L 103 130.5 L 105.5 131 L 108 132 L 107.5 134 L 91 134 Q 89.9 131.3 92.5 132 L 96 131 L 96 102.5 L 91 102 L 91 100 L 99.5 98 Z "/><path fill="rgb(0,0,0)" stroke="rgb(0,0,0)" stroke-width="1" opacity="1" d="M 186.5 98 Q 198 96 201 102.5 Q 204.5 106.7 203 115 L 181.5 115 Q 180.4 115.1 181 120.5 Q 181.9 127.1 186.5 130 L 193.5 132 L 202.5 129 L 200.5 132 Q 197 136 188.5 135 Q 181.8 133.8 178 129.5 Q 172.3 124.2 174 111.5 Q 175.8 103.9 181.5 100 L 186.5 98 Z M 191 100 L 188 101 Q 182 103 182 111 L 182 112 Q 192 113 197 111 L 196 103 L 191 100 Z "/><path fill="rgb(0,0,0)" stroke="rgb(0,0,0)" stroke-width="1" opacity="1" d="M 217.5 98 L 221 99.5 L 221.5 105 L 226.5 99 L 236 98 L 235 109 L 232 107.5 L 231 102 Q 226 101.2 224 104.5 L 221 109.5 L 221 131 L 228 132 L 227.5 134 L 209 134 Q 207.8 131 211.5 132 L 214 131 L 214 103.5 L 212.5 102 Q 207.7 103.3 209 100 L 217.5 98 Z "/>
<path fill="rgb(0,0,0)" stroke="rgb(0,0,0)" stroke-width="1" opacity="1" d="M 249.5 98 L 253 99.5 L 253 129.5 L 254.5 131 L 258 132 L 257.5 134 L 242 134 Q 240.9 131.3 243.5 132 L 247 131 L 247 103.5 L 245.5 102 Q 239.7 103.7 241 100 L 249.5 98 Z "/><path fill="rgb(0,0,0)" stroke="rgb(0,0,0)" stroke-width="1" opacity="1" d="M 276.5 98 Q 288.5 95.5 291 102.5 Q 294.5 106.7 293 115 L 271.5 115 Q 270.4 115.1 271 120.5 Q 272.1 127.9 277.5 131 L 282.5 132 L 287.5 131 L 291.5 128 L 293 129.5 L 289.5 133 Q 285.5 136 277.5 135 L 268 129.5 L 264 121.5 L 264 111.5 Q 265.9 103.9 271.5 100 L 276.5 98 Z M 281 100 L 278 101 Q 272 103 272 111 L 272 112 Q 281 113 287 111 L 286 103 L 281 100 Z "/><path fill="rgb(0,0,0)" stroke="rgb(0,0,0)" stroke-width="1" opacity="1" d="M 39.5 143 Q 45.8 142.3 46 143.5 L 46 192.5 L 47.5 193 L 51 194 Q 52.1 196.7 49.5 196 Q 48 198.5 42.5 197 L 40 193 L 31.5 197 L 25.5 197 Q 19.4 195.6 17 190.5 L 14 182.5 L 14 174.5 Q 15.5 166 21.5 162 L 31.5 159 L 40 161 L 40 147 L 34 147 L 34 144 L 39.5 143 Z M 31 162 L 27 164 Q 22 167 21 174 Q 20 185 24 191 L 32 194 L 38 192 L 40 189 L 40 166 Q 37 162 31 162 Z "/>
<path fill="rgb(0,0,0)" stroke="rgb(0,0,0)" stroke-width="1" opacity="1" d="M 75 145 L 79 146.5 L 97 193 L 102 194 L 101.5 196 L 84 196 Q 82.8 193 86.5 194 L 89 193 Q 88.3 184.7 83.5 179 L 67.5 179 L 67 180.5 L 63 193 L 68 194 L 67.5 196 L 53 196 Q 51.8 193 55.5 194 L 59 191.5 L 75 145 Z M 76 155 L 69 173 L 70 175 L 82 175 L 76 155 Z "/><path fill="rgb(0,0,0)" stroke="rgb(0,0,0)" stroke-width="1" opacity="1" d="M 112.5 160 Q 116.3 159.3 117 161.5 L 116 164.5 L 117.5 165 Q 121.5 158.5 133.5 160 L 137 162.5 L 138.5 165 L 146.5 160 L 154.5 160 L 159 163.5 L 160 165.5 L 160 191.5 L 161.5 193 L 165 194.5 L 164.5 196 L 149 196 Q 147.9 193.3 150.5 194 L 154 193 L 154 169.5 L 150.5 165 L 146.5 164 L 139 169.5 L 139 192.5 L 141.5 193 L 144 194 L 143.5 196 L 128 196 Q 126.9 193.3 129.5 194 L 133 193 L 133 172.5 L 132 167.5 L 128.5 164 L 124.5 164 L 117 168.5 L 117 192.5 L 119.5 193 L 122 194 L 121.5 196 L 105 196 Q 103.9 193.3 106.5 194 L 110 193 L 110 164.5 L 105 164 L 105 162 L 112.5 160 Z "/><path fill="rgb(0,0,0)" stroke="rgb(0,0,0)" stroke-width="1" opacity="1" d="M 229.5 160 Q 233.3 159.3 234 161.5 L 234 188.5 L 236.5 192 Q 246.9 193.4 250 187.5 L 250 164.5 L 245 164 L 245 162 L 256 160 L 257 165.5 L 257 167.5 L 257 192.5 L 258.5 194 L 262 194.5 Q 259.7 197.7 253.5 197 L 249.5 191 Q 245.2 197.2 234.5 197 L 229 193.5 L 227 187.5 L 227 164 Q 221.8 165.7 223 162 L 229.5 160 Z "/><path fill="rgb(0,0,0)" stroke="rgb(0,0,0)" stroke-width="1" opacity="1" d="M 273.5 160 Q 277.3 159.3 278 161.5 L 278.5 167 L 282.5 162 Q 285.6 158.4 293 160 L 292 171 Q 287.5 172.8 289 167.5 L 287.5 163 L 282 165 L 278 171.5 L 278 193 L 285 194 L 284.5 196 L 266 196 Q 264.8 193 268.5 194 L 271 193 L 271 164.5 L 266 164 L 266 162 L 273.5 160 Z "/><path fill="rgb(127,0,127)" stroke="rgb(127,0,127)" stroke-width="1" opacity="1" d="M 0.5 1 L 2 5.5 L 1 5.5 L 0.5 1 Z "/><path fill="rgb(127,0,127)" stroke="rgb(127,0,127)" stroke-width="1" opacity="1" d="M 9.5 1 Q 14.2 -0.3 15.5 2 L 16.5 1 L 32.5 1 L 33.5 2 L 313.5 2 L 315.5 1 L 320 2.5 L 5.5 3 L 5.5 2 L 9.5 1 Z "/><path fill="rgb(127,0,127)" stroke="rgb(127,0,127)" stroke-width="1" opacity="1" d="M 320.5 4 L 321 209.5 L 322 212 L 320 211.5 L 320.5 4 Z "/><path fill="rgb(127,0,127)" stroke="rgb(127,0,127)" stroke-width="1" opacity="1" d="M 3.5 7 L 4 13.5 L 3 13.5 L 3.5 7 Z "/><path fill="rgb(127,0,127)" stroke="rgb(127,0,127)" stroke-width="1" opacity="1" d="M 3.5 16 L 4 23.5 L 3 23.5 L 3.5 16 Z "/><path fill="rgb(127,0,127)" stroke="rgb(127,0,127)" stroke-width="1" opacity="1" d="M 3.5 40 L 4 212.5 L 3 212.5 L 3.5 40 Z "/><path fill="rgb(127,0,127)" stroke="rgb(127,0,127)" stroke-width="1" opacity="1" d="M 1.5 48 L 2 63.5 L 1 63.5 L 1.5 48 Z "/><path fill="rgb(127,0,127)" stroke="rgb(127,0,127)" stroke-width="1" opacity="1" d="M 211.5 142 L 215 143.5 L 212.5 144 L 211.5 142 Z "/><path fill="rgb(127,0,127)" stroke="rgb(127,0,127)" stroke-width="1" opacity="1" d="M 204.5 143 L 208 143.5 L 204.5 144 L 204.5 143 Z "/><path fill="rgb(127,0,127)" stroke="rgb(127,0,127)" stroke-width="1" opacity="1" d="M 175.5 146 L 183.5 147 L 185 148.5 L 183.5 148 L 176.5 147 L 172.5 148 L 172.5 147 L 175.5 146 Z "/><path fill="rgb(127,0,127)" stroke="rgb(127,0,127)" stroke-width="1" opacity="1" d="M 9.5 214 L 12 214.5 L 9.5 215 L 9.5 214 Z "/><path fill="rgb(127,0,127)" stroke="rgb(127,0,127)" stroke-width="1" opacity="1" d="M 14.5 214 L 312 214.5 L 14.5 215 L 14.5 214 Z "/><path fill="rgb(127,0,127)" stroke="rgb(127,0,127)" stroke-width="1" opacity="1" d="M 313.5 214 L 318 214.5 L 315.5 216 L 313.5 214 Z "/><path fill="rgb(127,127,127)" stroke="rgb(127,127,127)" stroke-width="1" opacity="1" d="M 123.5 22 Q 128.8 20.8 130 23.5 L 129.5 25 L 129 23 L 123.5 23 L 123.5 22 Z "/><path fill="rgb(127,127,127)" stroke="rgb(127,127,127)" stroke-width="1" opacity="1" d="M 158.5 22 L 164 22.5 L 158 23 L 157.5 25 L 157 23.5 L 158.5 22 Z "/><path fill="rgb(127,127,127)" stroke="rgb(127,127,127)" stroke-width="1" opacity="1" d="M 171.5 22 L 172 25 L 170 24.5 L 171.5 22 Z "/><path fill="rgb(127,127,127)" stroke="rgb(127,127,127)" stroke-width="1" opacity="1" d="M 124.5 30 L 126 32.5 L 124.5 37 L 124.5 30 Z "/><path fill="rgb(127,127,127)" stroke="rgb(127,127,127)" stroke-width="1" opacity="1" d="M 158.5 30 L 159 32.5 L 157.5 35 L 157 33.5 L 158.5 30 Z "/><path fill="rgb(127,127,127)" stroke="rgb(127,127,127)" stroke-width="1" opacity="1" d="M 166.5 31 L 167 35.5 L 166 35.5 L 166.5 31 Z "/><path fill="rgb(127,127,127)" stroke="rgb(127,127,127)" stroke-width="1" opacity="1" d="M 120.5 32 L 121 37.5 L 120 37.5 L 120.5 32 Z "/><path fill="rgb(127,127,127)" stroke="rgb(127,127,127)" stroke-width="1" opacity="1" d="M 188.5 35 L 193 35.5 L 188.5 36 L 188.5 35 Z "/><path fill="rgb(127,127,127)" stroke="rgb(127,127,127)" stroke-width="1" opacity="1" d="M 182.5 37 L 181.5 39 L 182.5 37 Z "/><path fill="rgb(127,127,127)" stroke="rgb(127,127,127)" stroke-width="1" opacity="1" d="M 189.5 38 Q 195.5 36.5 197 39.5 L 195.5 39 L 189.5 39 L 189.5 38 Z "/><path fill="rgb(127,127,127)" stroke="rgb(127,127,127)" stroke-width="1" opacity="1" d="M 186.5 39 L 187 41.5 L 186 41.5 L 186.5 39 Z "/><path fill="rgb(127,127,127)" stroke="rgb(127,127,127)" stroke-width="1" opacity="1" d="M 159.5 40 L 160 44.5 L 159 44.5 L 159.5 40 Z "/><path fill="rgb(127,127,127)" stroke="rgb(127,127,127)" stroke-width="1" opacity="1" d="M 181.5 40 L 182 42.5 L 181 42.5 L 181.5 40 Z "/><path fill="rgb(127,127,127)" stroke="rgb(127,127,127)" stroke-width="1" opacity="1" d="M 167.5 42 L 168 47.5 L 167 47.5 L 167.5 42 Z "/><path fill="rgb(127,127,127)" stroke="rgb(127,127,127)" stroke-width="1" opacity="1" d="M 199.5 44 L 200 52.5 L 199 52.5 L 199.5 44 Z "/><path fill="rgb(127,127,127)" stroke="rgb(127,127,127)" stroke-width="1" opacity="1" d="M 119.5 46 L 120 52.5 L 119 52.5 L 119.5 46 Z "/><path fill="rgb(127,127,127)" stroke="rgb(127,127,127)" stroke-width="1" opacity="1" d="M 206.5 46 L 207 68.5 L 206 68.5 L 206.5 46 Z "/><path fill="rgb(127,127,127)" stroke="rgb(127,127,127)" stroke-width="1" opacity="1" d="M 123.5 47 L 124 54.5 L 123 54.5 L 123.5 47 Z "/><path fill="rgb(127,127,127)" stroke="rgb(127,127,127)" stroke-width="1" opacity="1" d="M 160.5 51 L 161 55.5 L 160 55.5 L 160.5 51 Z "/><path fill="rgb(127,127,127)" stroke="rgb(127,127,127)" stroke-width="1" opacity="1" d="M 189.5 53 L 192 53.5 L 189.5 54 L 189.5 53 Z "/><path fill="rgb(127,127,127)" stroke="rgb(127,127,127)" stroke-width="1" opacity="1" d="M 168.5 54 L 169 59.5 L 168 59.5 L 168.5 54 Z "/><path fill="rgb(127,127,127)" stroke="rgb(127,127,127)" stroke-width="1" opacity="1" d="M 199.5 56 L 200 65.5 L 198 66.5 L 199 65.5 L 199.5 56 Z "/><path fill="rgb(127,127,127)" stroke="rgb(127,127,127)" stroke-width="1" opacity="1" d="M 118.5 60 L 119 67.5 L 117 68.5 L 118.5 60 Z "/><path fill="rgb(127,127,127)" stroke="rgb(127,127,127)" stroke-width="1" opacity="1" d="M 161.5 61 L 162 65.5 L 161 65.5 L 161.5 61 Z "/><path fill="rgb(127,127,127)" stroke="rgb(127,127,127)" stroke-width="1" opacity="1" d="M 186.5 61 L 187 65.5 L 186 65.5 L 186.5 61 Z "/><path fill="rgb(127,127,127)" stroke="rgb(127,127,127)" stroke-width="1" opacity="1" d="M 122.5 64 L 123 67.5 L 122 67.5 L 122.5 64 Z "/><path fill="rgb(127,127,127)" stroke="rgb(127,127,127)" stroke-width="1" opacity="1" d="M 179.5 65 L 180 67.5 L 179 67.5 L 179.5 65 Z "/><path fill="rgb(127,127,127)" stroke="rgb(127,127,127)" stroke-width="1" opacity="1" d="M 169.5 66 L 171 68.5 L 169 69 L 169.5 66 Z "/><path fill="rgb(127,127,127)" stroke="rgb(127,127,127)" stroke-width="1" opacity="1" d="M 187.5 67 L 188.5 69 L 187.5 67 Z "/><path fill="rgb(127,127,127)" stroke="rgb(127,127,127)" stroke-width="1" opacity="1" d="M 113.5 69 L 115 69.5 L 113 70 L 112.5 72 L 112 70.5 L 113.5 69 Z "/><path fill="rgb(127,127,127)" stroke="rgb(127,127,127)" stroke-width="1" opacity="1" d="M 140.5 69 L 141.5 71 L 140.5 69 Z "/><path fill="rgb(127,127,127)" stroke="rgb(127,127,127)" stroke-width="1" opacity="1" d="M 157.5 69 L 160 69.5 L 157.5 70 L 157.5 69 Z "/><path fill="rgb(127,127,127)" stroke="rgb(127,127,127)" stroke-width="1" opacity="1" d="M 209.5 69 L 212 70.5 L 210.5 70 L 209.5 69 Z "/><path fill="rgb(127,127,127)" stroke="rgb(127,127,127)" stroke-width="1" opacity="1" d="M 197.5 70 L 196.5 72 L 197.5 70 Z "/><path fill="rgb(127,127,127)" stroke="rgb(127,127,127)" stroke-width="1" opacity="1" d="M 174.5 71 L 173.5 73 L 172 72.5 L 174.5 71 Z "/><path fill="rgb(127,127,127)" stroke="rgb(127,127,127)" stroke-width="1" opacity="1" d="M 183.5 71 L 186 72.5 L 184.5 73 L 183.5 71 Z "/><path fill="rgb(127,127,127)" stroke="rgb(127,127,127)" stroke-width="1" opacity="1" d="M 207.5 72 L 211 72.5 L 207.5 73 L 207.5 72 Z "/><path fill="rgb(127,127,127)" stroke="rgb(127,127,127)" stroke-width="1" opacity="1" d="M 75.5 82 L 78 82.5 L 75.5 83 L 75.5 82 Z "/><path fill="rgb(127,127,127)" stroke="rgb(127,127,127)" stroke-width="1" opacity="1" d="M 247.5 82 Q 251.3 81.3 252 83.5 L 250.5 83 Q 246.5 83.8 247.5 82 Z "/><path fill="rgb(127,127,127)" stroke="rgb(127,127,127)" stroke-width="1" opacity="1" d="M 36.5 84 L 42 84.5 L 36.5 85 L 36.5 84 Z "/><path fill="rgb(127,127,127)" stroke="rgb(127,127,127)" stroke-width="1" opacity="1" d="M 48.5 84 L 49 85.5 L 47 86.5 L 48.5 84 Z "/><path fill="rgb(127,127,127)" stroke="rgb(127,127,127)" stroke-width="1" opacity="1" d="M 33.5 87 L 36 88.5 L 35.5 130 L 35 88 L 33.5 87 Z "/><path fill="rgb(127,127,127)" stroke="rgb(127,127,127)" stroke-width="1" opacity="1" d="M 169.5 96 L 170 98.5 L 169 98.5 L 169.5 96 Z "/><path fill="rgb(127,127,127)" stroke="rgb(127,127,127)" stroke-width="1" opacity="1" d="M 113.5 97 L 119 97.5 L 113.5 98 L 113.5 97 Z "/><path fill="rgb(127,127,127)" stroke="rgb(127,127,127)" stroke-width="1" opacity="1" d="M 187.5 97 L 195 97.5 L 187.5 98 L 187.5 97 Z "/><path fill="rgb(127,127,127)" stroke="rgb(127,127,127)" stroke-width="1" opacity="1" d="M 229.5 97 L 235 97.5 L 229.5 98 L 229.5 97 Z "/><path fill="rgb(127,127,127)" stroke="rgb(127,127,127)" stroke-width="1" opacity="1" d="M 277.5 97 L 285 97.5 L 277.5 98 L 277.5 97 Z "/><path fill="rgb(127,127,127)" stroke="rgb(127,127,127)" stroke-width="1" opacity="1" d="M 80.5 98 L 82 98.5 L 82 129.5 L 82.5 131 L 81 130.5 L 81 99.5 L 80.5 98 Z "/><path fill="rgb(127,127,127)" stroke="rgb(127,127,127)" stroke-width="1" opacity="1" d="M 96.5 98 L 99 98.5 L 96.5 99 L 96.5 98 Z "/><path fill="rgb(127,127,127)" stroke="rgb(127,127,127)" stroke-width="1" opacity="1" d="M 146.5 98 L 150 98.5 L 146.5 99 L 146.5 98 Z "/><path fill="rgb(127,127,127)" stroke="rgb(127,127,127)" stroke-width="1" opacity="1" d="M 153.5 98 L 156 98.5 L 153.5 99 L 153.5 98 Z "/><path fill="rgb(127,127,127)" stroke="rgb(127,127,127)" stroke-width="1" opacity="1" d="M 159.5 98 L 158.5 100 L 159.5 98 Z "/><path fill="rgb(127,127,127)" stroke="rgb(127,127,127)" stroke-width="1" opacity="1" d="M 214.5 98 L 217 98.5 L 214.5 99 L 214.5 98 Z "/><path fill="rgb(127,127,127)" stroke="rgb(127,127,127)" stroke-width="1" opacity="1" d="M 236.5 98 L 237 100.5 L 236 100.5 L 236.5 98 Z "/><path fill="rgb(127,127,127)" stroke="rgb(127,127,127)" stroke-width="1" opacity="1" d="M 246.5 98 L 249 98.5 L 246.5 99 L 246.5 98 Z "/><path fill="rgb(127,127,127)" stroke="rgb(127,127,127)" stroke-width="1" opacity="1" d="M 252.5 98 L 254 98.5 L 254 129.5 L 254.5 131 L 253 129.5 L 253 99.5 L 252.5 98 Z "/><path fill="rgb(127,127,127)" stroke="rgb(127,127,127)" stroke-width="1" opacity="1" d="M 69.5 99 L 71 99.5 L 69 100 Q 67.7 103.7 73.5 102 L 75 103.5 L 75 130.5 L 74 130.5 L 74 103.5 Q 74 102.5 69.5 103 L 68 100.5 L 69.5 99 Z "/><path fill="rgb(127,127,127)" stroke="rgb(127,127,127)" stroke-width="1" opacity="1" d="M 91.5 99 L 93 99.5 L 91 100 Q 89.7 103.7 95.5 102 L 95.5 103 Q 91 104 90 101.5 L 91.5 99 Z "/><path fill="rgb(127,127,127)" stroke="rgb(127,127,127)" stroke-width="1" opacity="1" d="M 122.5 99 L 124.5 102 L 122.5 99 Z "/><path fill="rgb(127,127,127)" stroke="rgb(127,127,127)" stroke-width="1" opacity="1" d="M 198.5 99 L 200.5 102 L 198.5 99 Z "/><path fill="rgb(127,127,127)" stroke="rgb(127,127,127)" stroke-width="1" opacity="1" d="M 209.5 99 L 211 99.5 L 209 100 Q 207.7 103.3 212.5 102 L 212.5 103 Q 208.8 103.8 208 101.5 L 209.5 99 Z "/><path fill="rgb(127,127,127)" stroke="rgb(127,127,127)" stroke-width="1" opacity="1" d="M 241.5 99 L 244 99.5 L 241.5 100 L 241.5 99 Z "/><path fill="rgb(127,127,127)" stroke="rgb(127,127,127)" stroke-width="1" opacity="1" d="M 288.5 99 L 290.5 102 L 288.5 99 Z "/><path fill="rgb(127,127,127)" stroke="rgb(127,127,127)" stroke-width="1" opacity="1" d="M 161 100 L 163 100.5 L 161 101.5 L 161 100 Z "/><path fill="rgb(127,127,127)" stroke="rgb(127,127,127)" stroke-width="1" opacity="1" d="M 190.5 100 L 193 100.5 L 190.5 101 L 190.5 100 Z "/><path fill="rgb(127,127,127)" stroke="rgb(127,127,127)" stroke-width="1" opacity="1" d="M 280.5 100 L 283 100.5 L 280.5 101 L 280.5 100 Z "/><path fill="rgb(127,127,127)" stroke="rgb(127,127,127)" stroke-width="1" opacity="1" d="M 140.5 101 L 138.5 104 L 140.5 101 Z "/><path fill="rgb(127,127,127)" stroke="rgb(127,127,127)" stroke-width="1" opacity="1" d="M 147.5 101 L 149 101.5 L 146.5 103 L 147.5 101 Z "/><path fill="rgb(127,127,127)" stroke="rgb(127,127,127)" stroke-width="1" opacity="1" d="M 179.5 101 L 178.5 103 L 179.5 101 Z "/><path fill="rgb(127,127,127)" stroke="rgb(127,127,127)" stroke-width="1" opacity="1" d="M 194.5 101 L 195.5 103 L 194.5 101 Z "/><path fill="rgb(127,127,127)" stroke="rgb(127,127,127)" stroke-width="1" opacity="1" d="M 240.5 101 L 247 103.5 L 246.5 131 L 246 103 Q 240.3 104.3 240.5 101 Z "/><path fill="rgb(127,127,127)" stroke="rgb(127,127,127)" stroke-width="1" opacity="1" d="M 277.5 101 L 276.5 103 L 277.5 101 Z "/><path fill="rgb(127,127,127)" stroke="rgb(127,127,127)" stroke-width="1" opacity="1" d="M 284.5 101 L 285.5 103 L 284.5 101 Z "/><path fill="rgb(127,127,127)" stroke="rgb(127,127,127)" stroke-width="1" opacity="1" d="M 109.5 102 L 115 102.5 L 109.5 103 L 109.5 102 Z "/><path fill="rgb(127,127,127)" stroke="rgb(127,127,127)" stroke-width="1" opacity="1" d="M 116.5 103 L 117.5 105 L 116.5 103 Z "/><path fill="rgb(127,127,127)" stroke="rgb(127,127,127)" stroke-width="1" opacity="1" d="M 125.5 103 L 126 105.5 L 125 105.5 L 125.5 103 Z "/><path fill="rgb(127,127,127)" stroke="rgb(127,127,127)" stroke-width="1" opacity="1" d="M 225.5 103 L 224.5 105 L 225.5 103 Z "/><path fill="rgb(127,127,127)" stroke="rgb(127,127,127)" stroke-width="1" opacity="1" d="M 105.5 104 L 103.5 107 L 105.5 104 Z "/><path fill="rgb(127,127,127)" stroke="rgb(127,127,127)" stroke-width="1" opacity="1" d="M 184.5 104 L 183.5 106 L 184.5 104 Z "/><path fill="rgb(127,127,127)" stroke="rgb(127,127,127)" stroke-width="1" opacity="1" d="M 231.5 104 L 233 108.5 L 231 107.5 L 231.5 104 Z "/><path fill="rgb(127,127,127)" stroke="rgb(127,127,127)" stroke-width="1" opacity="1" d="M 274.5 104 L 273.5 106 L 274.5 104 Z "/><path fill="rgb(127,127,127)" stroke="rgb(127,127,127)" stroke-width="1" opacity="1" d="M 196.5 105 L 197 107.5 L 196 107.5 L 196.5 105 Z "/><path fill="rgb(127,127,127)" stroke="rgb(127,127,127)" stroke-width="1" opacity="1" d="M 286.5 105 L 287 108.5 L 286 108.5 L 286.5 105 Z "/><path fill="rgb(127,127,127)" stroke="rgb(127,127,127)" stroke-width="1" opacity="1" d="M 235.5 106 L 236 108.5 L 235 108.5 L 235.5 106 Z "/><path fill="rgb(127,127,127)" stroke="rgb(127,127,127)" stroke-width="1" opacity="1" d="M 136.5 108 L 137 112.5 L 136 112.5 L 136.5 108 Z "/><path fill="rgb(127,127,127)" stroke="rgb(127,127,127)" stroke-width="1" opacity="1" d="M 103.5 109 L 104 130.5 L 103 130.5 L 103.5 109 Z "/><path fill="rgb(127,127,127)" stroke="rgb(127,127,127)" stroke-width="1" opacity="1" d="M 159.5 109 L 160 111.5 L 159 111.5 L 159.5 109 Z "/><path fill="rgb(127,127,127)" stroke="rgb(127,127,127)" stroke-width="1" opacity="1" d="M 203.5 109 L 204 114.5 L 203 114.5 L 203.5 109 Z "/><path fill="rgb(127,127,127)" stroke="rgb(127,127,127)" stroke-width="1" opacity="1" d="M 293.5 109 L 294 114.5 L 293 114.5 L 293.5 109 Z "/><path fill="rgb(127,127,127)" stroke="rgb(127,127,127)" stroke-width="1" opacity="1" d="M 185.5 111 L 194 111.5 L 185.5 112 L 185.5 111 Z "/><path fill="rgb(127,127,127)" stroke="rgb(127,127,127)" stroke-width="1" opacity="1" d="M 221.5 111 L 222 127.5 L 221 127.5 L 221.5 111 Z "/><path fill="rgb(127,127,127)" stroke="rgb(127,127,127)" stroke-width="1" opacity="1" d="M 275.5 111 L 283 111.5 L 275.5 112 L 275.5 111 Z "/><path fill="rgb(127,127,127)" stroke="rgb(127,127,127)" stroke-width="1" opacity="1" d="M 263.5 114 L 264 117.5 L 263 117.5 L 263.5 114 Z "/><path fill="rgb(127,127,127)" stroke="rgb(127,127,127)" stroke-width="1" opacity="1" d="M 138.5 116 L 141.5 120 L 138.5 116 Z "/><path fill="rgb(127,127,127)" stroke="rgb(127,127,127)" stroke-width="1" opacity="1" d="M 146.5 117 L 147.5 119 L 146.5 117 Z "/><path fill="rgb(127,127,127)" stroke="rgb(127,127,127)" stroke-width="1" opacity="1" d="M 271.5 117 L 272 120.5 L 271 120.5 L 271.5 117 Z "/><path fill="rgb(127,127,127)" stroke="rgb(127,127,127)" stroke-width="1" opacity="1" d="M 181.5 118 L 182 120.5 L 181 120.5 L 181.5 118 Z "/><path fill="rgb(127,127,127)" stroke="rgb(127,127,127)" stroke-width="1" opacity="1" d="M 62.5 121 L 65 122.5 L 64.5 126 L 64 122 Q 61.3 120.9 62 123.5 L 61 123.5 L 62.5 121 Z "/><path fill="rgb(127,127,127)" stroke="rgb(127,127,127)" stroke-width="1" opacity="1" d="M 142.5 121 L 141.5 123 L 142.5 121 Z "/><path fill="rgb(127,127,127)" stroke="rgb(127,127,127)" stroke-width="1" opacity="1" d="M 140.5 124 L 141 126.5 L 140 126.5 L 140.5 124 Z "/><path fill="rgb(127,127,127)" stroke="rgb(127,127,127)" stroke-width="1" opacity="1" d="M 265.5 125 L 268 128.5 L 266 127.5 L 265.5 125 Z "/><path fill="rgb(127,127,127)" stroke="rgb(127,127,127)" stroke-width="1" opacity="1" d="M 151.5 127 L 154 127.5 L 151.5 128 L 151.5 127 Z "/><path fill="rgb(127,127,127)" stroke="rgb(127,127,127)" stroke-width="1" opacity="1" d="M 176.5 127 L 177.5 129 L 176.5 127 Z "/><path fill="rgb(127,127,127)" stroke="rgb(127,127,127)" stroke-width="1" opacity="1" d="M 221.5 129 L 222.5 131 Q 219.7 131.7 221.5 129 Z "/><path fill="rgb(127,127,127)" stroke="rgb(127,127,127)" stroke-width="1" opacity="1" d="M 276.5 129 L 279 130.5 L 277.5 131 L 276.5 129 Z "/><path fill="rgb(127,127,127)" stroke="rgb(127,127,127)" stroke-width="1" opacity="1" d="M 141.5 130 L 142.5 132 L 141.5 130 Z "/><path fill="rgb(127,127,127)" stroke="rgb(127,127,127)" stroke-width="1" opacity="1" d="M 165.5 130 L 167.5 133 L 165.5 130 Z "/><path fill="rgb(127,127,127)" stroke="rgb(127,127,127)" stroke-width="1" opacity="1" d="M 202.5 130 L 201.5 132 L 202.5 130 Z "/><path fill="rgb(127,127,127)" stroke="rgb(127,127,127)" stroke-width="1" opacity="1" d="M 292.5 130 L 291.5 132 L 292.5 130 Z "/><path fill="rgb(127,127,127)" stroke="rgb(127,127,127)" stroke-width="1" opacity="1" d="M 30.5 131 L 33 131.5 L 30.5 132 L 30.5 131 Z "/><path fill="rgb(127,127,127)" stroke="rgb(127,127,127)" stroke-width="1" opacity="1" d="M 70.5 131 L 72 131.5 L 70 132 L 71 134.5 L 69 133.5 L 70.5 131 Z "/><path fill="rgb(127,127,127)" stroke="rgb(127,127,127)" stroke-width="1" opacity="1" d="M 115.5 131 L 115 132.5 L 114.5 134 L 114 132.5 L 115.5 131 Z "/><path fill="rgb(127,127,127)" stroke="rgb(127,127,127)" stroke-width="1" opacity="1" d="M 180.5 131 L 181.5 133 L 180.5 131 Z "/><path fill="rgb(127,127,127)" stroke="rgb(127,127,127)" stroke-width="1" opacity="1" d="M 225.5 131 L 228 131.5 L 225.5 132 L 225.5 131 Z "/><path fill="rgb(127,127,127)" stroke="rgb(127,127,127)" stroke-width="1" opacity="1" d="M 242.5 131 L 244 131.5 L 242 132 L 243 134.5 L 241 133.5 L 242.5 131 Z "/><path fill="rgb(127,127,127)" stroke="rgb(127,127,127)" stroke-width="1" opacity="1" d="M 270.5 131 L 271.5 133 L 270.5 131 Z "/><path fill="rgb(127,127,127)" stroke="rgb(127,127,127)" stroke-width="1" opacity="1" d="M 140.5 132 L 137.5 136 L 140.5 132 Z "/><path fill="rgb(127,127,127)" stroke="rgb(127,127,127)" stroke-width="1" opacity="1" d="M 199.5 132 L 198.5 134 L 199.5 132 Z "/><path fill="rgb(127,127,127)" stroke="rgb(127,127,127)" stroke-width="1" opacity="1" d="M 185.5 134 L 188 134.5 L 185.5 135 L 185.5 134 Z "/><path fill="rgb(127,127,127)" stroke="rgb(127,127,127)" stroke-width="1" opacity="1" d="M 168.5 139 L 169 141.5 L 168 141.5 L 168.5 139 Z "/><path fill="rgb(127,127,127)" stroke="rgb(127,127,127)" stroke-width="1" opacity="1" d="M 207.5 141 L 212 141.5 L 211.5 144 L 204 143 Q 205.1 145.7 202.5 145 L 195 151.5 L 194.5 153 L 194 151.5 L 199.5 144 L 207.5 141 Z "/><path fill="rgb(127,127,127)" stroke="rgb(127,127,127)" stroke-width="1" opacity="1" d="M 41.5 142 L 45 142.5 L 41.5 143 L 41.5 142 Z "/><path fill="rgb(127,127,127)" stroke="rgb(127,127,127)" stroke-width="1" opacity="1" d="M 213.5 142 L 217 143.5 L 217.5 145 Q 219.3 142.3 221 146.5 L 224 154.5 L 223 154.5 Q 222.2 147.3 216.5 145 L 213.5 143 L 213.5 142 Z "/><path fill="rgb(127,127,127)" stroke="rgb(127,127,127)" stroke-width="1" opacity="1" d="M 46.5 143 L 47 192.5 L 46 192.5 L 46.5 143 Z "/><path fill="rgb(127,127,127)" stroke="rgb(127,127,127)" stroke-width="1" opacity="1" d="M 76.5 144 L 79 145.5 L 77.5 145 L 76.5 144 Z "/><path fill="rgb(127,127,127)" stroke="rgb(127,127,127)" stroke-width="1" opacity="1" d="M 166.5 144 L 165.5 146 L 166.5 144 Z "/><path fill="rgb(127,127,127)" stroke="rgb(127,127,127)" stroke-width="1" opacity="1" d="M 137.5 145 L 138.5 147 L 137.5 145 Z "/><path fill="rgb(127,127,127)" stroke="rgb(127,127,127)" stroke-width="1" opacity="1" d="M 175.5 145 Q 187.3 144.7 191 152.5 L 193 158.5 L 192 158.5 Q 190.2 151.3 184.5 148 L 182.5 149 L 182.5 148 L 184 147.5 L 175.5 146 L 172 147 Q 173.1 149.7 170.5 149 L 167 150 L 162.5 159 L 162 156.5 L 166.5 149 L 175.5 145 Z "/><path fill="rgb(127,127,127)" stroke="rgb(127,127,127)" stroke-width="1" opacity="1" d="M 39.5 147 L 40 161 L 37 160.5 L 39 160 L 39.5 147 Z "/><path fill="rgb(127,127,127)" stroke="rgb(127,127,127)" stroke-width="1" opacity="1" d="M 144.5 149 L 147 149.5 L 144.5 150 L 144.5 149 Z "/><path fill="rgb(127,127,127)" stroke="rgb(127,127,127)" stroke-width="1" opacity="1" d="M 154.5 149 L 158 149.5 L 154.5 150 L 154.5 149 Z "/><path fill="rgb(127,127,127)" stroke="rgb(127,127,127)" stroke-width="1" opacity="1" d="M 75.5 155 L 75 156.5 L 74.5 158 L 74 156.5 L 75.5 155 Z "/><path fill="rgb(127,127,127)" stroke="rgb(127,127,127)" stroke-width="1" opacity="1" d="M 27.5 159 L 31 159.5 L 27.5 160 L 27.5 159 Z "/><path fill="rgb(127,127,127)" stroke="rgb(127,127,127)" stroke-width="1" opacity="1" d="M 32.5 159 L 36 159.5 L 32.5 160 L 32.5 159 Z "/><path fill="rgb(127,127,127)" stroke="rgb(127,127,127)" stroke-width="1" opacity="1" d="M 126.5 159 L 132 159.5 L 126.5 160 L 126.5 159 Z "/><path fill="rgb(127,127,127)" stroke="rgb(127,127,127)" stroke-width="1" opacity="1" d="M 148.5 159 L 153 159.5 L 148.5 160 L 148.5 159 Z "/><path fill="rgb(127,127,127)" stroke="rgb(127,127,127)" stroke-width="1" opacity="1" d="M 286.5 159 L 292 159.5 L 286.5 160 L 286.5 159 Z "/><path fill="rgb(127,127,127)" stroke="rgb(127,127,127)" stroke-width="1" opacity="1" d="M 144.5 160 L 146 160.5 L 143.5 162 L 144.5 160 Z "/><path fill="rgb(127,127,127)" stroke="rgb(127,127,127)" stroke-width="1" opacity="1" d="M 223.5 160 L 224 162 L 222 161.5 L 223.5 160 Z "/><path fill="rgb(127,127,127)" stroke="rgb(127,127,127)" stroke-width="1" opacity="1" d="M 249.5 160 L 252 160.5 L 249.5 161 L 249.5 160 Z "/><path fill="rgb(127,127,127)" stroke="rgb(127,127,127)" stroke-width="1" opacity="1" d="M 284.5 160 L 283.5 162 L 284.5 160 Z "/><path fill="rgb(127,127,127)" stroke="rgb(127,127,127)" stroke-width="1" opacity="1" d="M 293.5 160 L 294 164.5 L 293 164.5 L 293.5 160 Z "/><path fill="rgb(127,127,127)" stroke="rgb(127,127,127)" stroke-width="1" opacity="1" d="M 105.5 161 L 107 161.5 L 105 162 Q 103.7 165.7 109.5 164 L 109.5 165 Q 105 166 104 163.5 L 105.5 161 Z "/><path fill="rgb(127,127,127)" stroke="rgb(127,127,127)" stroke-width="1" opacity="1" d="M 157.5 161 L 158.5 163 L 157.5 161 Z "/><path fill="rgb(127,127,127)" stroke="rgb(127,127,127)" stroke-width="1" opacity="1" d="M 245.5 161 L 247 161.5 L 245 162 L 245 164 L 250 164.5 L 250 187.5 L 247 189.5 L 249 187.5 L 249 165 Q 245.2 166 244 163.5 L 245.5 161 Z "/><path fill="rgb(127,127,127)" stroke="rgb(127,127,127)" stroke-width="1" opacity="1" d="M 266.5 161 L 268 161.5 L 266 162 Q 264.6 165.7 270.5 164 L 270.5 165 L 265 165 L 265 162.5 L 266.5 161 Z "/><path fill="rgb(127,127,127)" stroke="rgb(127,127,127)" stroke-width="1" opacity="1" d="M 30.5 162 L 34 162.5 L 30.5 163 L 30.5 162 Z "/><path fill="rgb(127,127,127)" stroke="rgb(127,127,127)" stroke-width="1" opacity="1" d="M 141.5 162 L 139.5 165 L 141.5 162 Z "/><path fill="rgb(127,127,127)" stroke="rgb(127,127,127)" stroke-width="1" opacity="1" d="M 19.5 163 L 18.5 165 L 19.5 163 Z "/><path fill="rgb(127,127,127)" stroke="rgb(127,127,127)" stroke-width="1" opacity="1" d="M 38.5 164 L 40 165.5 L 40 188.5 L 39 188.5 L 39 165.5 L 38.5 164 Z "/><path fill="rgb(127,127,127)" stroke="rgb(127,127,127)" stroke-width="1" opacity="1" d="M 124.5 164 L 129 164.5 L 124.5 165 L 124.5 164 Z "/><path fill="rgb(127,127,127)" stroke="rgb(127,127,127)" stroke-width="1" opacity="1" d="M 146.5 164 L 149 164.5 L 146.5 165 L 146.5 164 Z "/><path fill="rgb(127,127,127)" stroke="rgb(127,127,127)" stroke-width="1" opacity="1" d="M 162.5 164 Q 165 172 171.5 176 L 181 180.5 L 180.5 182 L 182.5 181 L 189 185.5 L 189.5 187 L 191 186.5 Q 190.3 188.8 192.5 188 L 197.5 193 L 199 191.5 Q 202.3 180.4 211.5 175 L 220 167.5 L 221 164 L 227 164.5 L 222 165 Q 220.9 171.3 215.5 175 L 209.5 180 L 208 179.5 L 208 182 Q 205.3 180.9 206 183.5 L 197.5 195 Q 192.6 187.6 184 185 L 183.5 183 L 181.5 183 L 171 177.5 Q 171.8 174.9 168.5 176 Q 162.2 172.4 162.5 164 Z "/><path fill="rgb(127,127,127)" stroke="rgb(127,127,127)" stroke-width="1" opacity="1" d="M 279.5 165 L 278.5 167 L 279.5 165 Z "/><path fill="rgb(127,127,127)" stroke="rgb(127,127,127)" stroke-width="1" opacity="1" d="M 118.5 167 L 118 168.5 L 117.5 171 L 117 168.5 L 118.5 167 Z "/><path fill="rgb(127,127,127)" stroke="rgb(127,127,127)" stroke-width="1" opacity="1" d="M 288.5 167 L 289 169.5 L 288 169.5 L 288.5 167 Z "/><path fill="rgb(127,127,127)" stroke="rgb(127,127,127)" stroke-width="1" opacity="1" d="M 160.5 168 L 161 191.5 L 162 192.5 L 160 191.5 L 160.5 168 Z "/><path fill="rgb(127,127,127)" stroke="rgb(127,127,127)" stroke-width="1" opacity="1" d="M 139.5 169 L 140 192.5 L 139 192.5 L 139.5 169 Z "/><path fill="rgb(127,127,127)" stroke="rgb(127,127,127)" stroke-width="1" opacity="1" d="M 153.5 169 L 154 192.5 L 153 192.5 L 153.5 169 Z "/><path fill="rgb(127,127,127)" stroke="rgb(127,127,127)" stroke-width="1" opacity="1" d="M 132.5 172 L 133 193 L 131 192.5 L 132 191.5 L 132.5 172 Z "/><path fill="rgb(127,127,127)" stroke="rgb(127,127,127)" stroke-width="1" opacity="1" d="M 21.5 173 L 22 183.5 L 21 183.5 L 21.5 173 Z "/><path fill="rgb(127,127,127)" stroke="rgb(127,127,127)" stroke-width="1" opacity="1" d="M 117.5 174 L 118 192.5 L 117 192.5 L 117.5 174 Z "/><path fill="rgb(127,127,127)" stroke="rgb(127,127,127)" stroke-width="1" opacity="1" d="M 278.5 184 L 280 192.5 L 278 193 L 278.5 184 Z "/><path fill="rgb(127,127,127)" stroke="rgb(127,127,127)" stroke-width="1" opacity="1" d="M 227.5 188 L 228 190.5 L 227 190.5 L 227.5 188 Z "/><path fill="rgb(127,127,127)" stroke="rgb(127,127,127)" stroke-width="1" opacity="1" d="M 24.5 190 L 25.5 192 L 24.5 190 Z "/><path fill="rgb(127,127,127)" stroke="rgb(127,127,127)" stroke-width="1" opacity="1" d="M 38.5 190 L 37.5 192 L 35.5 193 L 36.5 191 L 38.5 190 Z "/><path fill="rgb(127,127,127)" stroke="rgb(127,127,127)" stroke-width="1" opacity="1" d="M 235.5 190 L 238 191.5 L 236.5 192 L 235.5 190 Z "/><path fill="rgb(127,127,127)" stroke="rgb(127,127,127)" stroke-width="1" opacity="1" d="M 17.5 191 L 20.5 195 L 17.5 191 Z "/><path fill="rgb(127,127,127)" stroke="rgb(127,127,127)" stroke-width="1" opacity="1" d="M 249.5 191 L 250.5 193 L 249.5 192 L 247 193.5 L 249.5 191 Z "/><path fill="rgb(127,127,127)" stroke="rgb(127,127,127)" stroke-width="1" opacity="1" d="M 38.5 193 L 37.5 195 L 38.5 193 Z "/><path fill="rgb(127,127,127)" stroke="rgb(127,127,127)" stroke-width="1" opacity="1" d="M 53.5 193 L 56 193.5 L 53.5 194 L 53.5 193 Z "/><path fill="rgb(127,127,127)" stroke="rgb(127,127,127)" stroke-width="1" opacity="1" d="M 84.5 193 L 87 193.5 L 84 194 L 85 196.5 L 83 197 L 84.5 193 Z "/><path fill="rgb(127,127,127)" stroke="rgb(127,127,127)" stroke-width="1" opacity="1" d="M 100.5 193 L 103 194.5 L 102.5 196 L 102 194 L 100.5 193 Z "/><path fill="rgb(127,127,127)" stroke="rgb(127,127,127)" stroke-width="1" opacity="1" d="M 128.5 193 L 130 193.5 L 128 194 L 129 196.5 L 127 195.5 L 128.5 193 Z "/><path fill="rgb(127,127,127)" stroke="rgb(127,127,127)" stroke-width="1" opacity="1" d="M 142.5 193 L 145 194.5 L 143.5 194 L 142.5 193 Z "/><path fill="rgb(127,127,127)" stroke="rgb(127,127,127)" stroke-width="1" opacity="1" d="M 164.5 193 L 166 195.5 L 164 196.5 L 165 194.5 L 164.5 193 Z "/><path fill="rgb(127,127,127)" stroke="rgb(127,127,127)" stroke-width="1" opacity="1" d="M 258.5 193 L 261 193.5 L 258.5 194 L 258.5 193 Z "/><path fill="rgb(127,127,127)" stroke="rgb(127,127,127)" stroke-width="1" opacity="1" d="M 282.5 193 L 285 193.5 L 282.5 194 L 282.5 193 Z "/><path fill="rgb(127,127,127)" stroke="rgb(127,127,127)" stroke-width="1" opacity="1" d="M 51.5 194 L 52 195.5 L 49.5 197 L 49.5 196 Q 52 196.7 51.5 194 Z "/><path fill="rgb(127,127,127)" stroke="rgb(127,127,127)" stroke-width="1" opacity="1" d="M 40.5 195 L 41.5 197 L 40.5 195 Z "/><path fill="rgb(127,127,127)" stroke="rgb(127,127,127)" stroke-width="1" opacity="1" d="M 251.5 195 L 252.5 197 Q 249.7 197.7 251.5 195 Z "/><path fill="rgb(127,127,127)" stroke="rgb(127,127,127)" stroke-width="1" opacity="1" d="M 261.5 195 L 260.5 197 L 258 196.5 L 261.5 195 Z "/><path fill="rgb(127,127,127)" stroke="rgb(127,127,127)" stroke-width="1" opacity="1" d="M 27.5 197 L 30 197.5 L 27.5 198 L 27.5 197 Z "/><path fill="rgb(254,0,127)" stroke="rgb(254,0,127)" stroke-width="1" opacity="1" d="M 0.5 0 L 323 0 L 323 217 L 2.5 217 L 1.5 216 L 0 216.5 L 1 212.5 L 0 211.5 L 0 3.5 L 1 1.5 L 0.5 0 Z M 10 1 L 6 2 L 3 8 Q 2 13 4 15 L 3 17 Q 1 23 4 25 L 4 40 L 3 41 L 3 213 L 7 214 L 10 215 L 13 214 L 15 215 L 312 215 L 313 214 L 316 216 L 319 214 Q 321 215 320 212 L 322 212 L 321 210 L 321 5 L 320 2 L 316 1 L 314 2 L 34 2 L 33 1 L 17 1 L 16 2 Q 14 0 10 1 Z M 2 3 L 1 6 L 2 6 L 2 3 Z M 2 48 L 1 64 L 2 64 L 2 48 Z "/><path fill="rgb(254,127,127)" stroke="rgb(254,127,127)" stroke-width="1" opacity="1" d="M 4.5 3 L 5 119.5 L 4 119.5 L 4.5 3 Z "/><path fill="rgb(254,127,127)" stroke="rgb(254,127,127)" stroke-width="1" opacity="1" d="M 319.5 96 L 320 214 L 4 213.5 L 319 213 L 319.5 96 Z "/><path fill="rgb(254,127,127)" stroke="rgb(254,127,127)" stroke-width="1" opacity="1" d="M 202.5 142 L 201.5 144 L 200 143.5 L 202.5 142 Z "/><path fill="rgb(254,127,127)" stroke="rgb(254,127,127)" stroke-width="1" opacity="1" d="M 216.5 142 L 217.5 144 L 216.5 142 Z "/><path fill="rgb(254,127,127)" stroke="rgb(254,127,127)" stroke-width="1" opacity="1" d="M 4.5 144 L 5 151.5 L 4 151.5 L 4.5 144 Z "/><path fill="rgb(254,127,127)" stroke="rgb(254,127,127)" stroke-width="1" opacity="1" d="M 187.5 148 L 189.5 151 L 187.5 148 Z "/><path fill="rgb(254,127,127)" stroke="rgb(254,127,127)" stroke-width="1" opacity="1" d="M 184.5 149 L 187 150.5 L 185.5 150 L 184.5 149 Z "/><path fill="rgb(254,127,127)" stroke="rgb(254,127,127)" stroke-width="1" opacity="1" d="M 222.5 149 L 221.5 151 L 222.5 149 Z "/><path fill="rgb(254,127,127)" stroke="rgb(254,127,127)" stroke-width="1" opacity="1" d="M 213.5 173 L 212.5 175 L 213.5 173 Z "/><path fill="rgb(254,127,127)" stroke="rgb(254,127,127)" stroke-width="1" opacity="1" d="M 170.5 174 L 171.5 176 L 170.5 174 Z "/><path fill="rgb(254,127,127)" stroke="rgb(254,127,127)" stroke-width="1" opacity="1" d="M 214.5 175 L 213.5 177 L 214.5 175 Z "/><path fill="rgb(254,127,127)" stroke="rgb(254,127,127)" stroke-width="1" opacity="1" d="M 169.5 176 L 170.5 178 L 169.5 176 Z "/><path fill="rgb(254,127,127)" stroke="rgb(254,127,127)" stroke-width="1" opacity="1" d="M 188.5 184 L 189.5 186 L 188.5 184 Z "/><path fill="rgb(254,127,127)" stroke="rgb(254,127,127)" stroke-width="1" opacity="1" d="M 191.5 186 L 195.5 191 L 191.5 186 Z "/><path fill="rgb(254,127,127)" stroke="rgb(254,127,127)" stroke-width="1" opacity="1" d="M 198.5 191 L 197.5 193 L 198.5 191 Z "/><path fill="rgb(254,127,254)" stroke="rgb(254,127,254)" stroke-width="1" opacity="1" d="M 5 3 L 10 3.5 L 5.5 5 L 5 3 Z "/><path fill="rgb(254,127,254)" stroke="rgb(254,127,254)" stroke-width="1" opacity="1" d="M 13.5 3 L 16 3.5 L 13.5 4 L 13.5 3 Z "/><path fill="rgb(254,127,254)" stroke="rgb(254,127,254)" stroke-width="1" opacity="1" d="M 24.5 3 L 319.5 3 L 320 3.5 L 320 95.5 L 319 95.5 L 319 4.5 L 318.5 4 L 24.5 4 L 24.5 3 Z "/><path fill="rgb(254,127,254)" stroke="rgb(254,127,254)" stroke-width="1" opacity="1" d="M 4.5 120 L 5 143.5 L 4 143.5 L 4.5 120 Z "/><path fill="rgb(254,127,254)" stroke="rgb(254,127,254)" stroke-width="1" opacity="1" d="M 200.5 146 L 199.5 148 L 200.5 146 Z "/><path fill="rgb(254,127,254)" stroke="rgb(254,127,254)" stroke-width="1" opacity="1" d="M 217.5 146 L 218.5 148 L 217.5 146 Z "/><path fill="rgb(254,127,254)" stroke="rgb(254,127,254)" stroke-width="1" opacity="1" d="M 4.5 152 L 5 211.5 L 6 212.5 L 4 213 L 4.5 152 Z "/><path fill="rgb(254,127,254)" stroke="rgb(254,127,254)" stroke-width="1" opacity="1" d="M 217.5 169 L 216.5 171 L 217.5 169 Z "/><path fill="rgb(254,127,254)" stroke="rgb(254,127,254)" stroke-width="1" opacity="1" d="M 220.5 169 L 219.5 171 L 220.5 169 Z "/><path fill="rgb(254,127,254)" stroke="rgb(254,127,254)" stroke-width="1" opacity="1" d="M 209.5 176 L 203.5 183 L 209.5 176 Z "/><path fill="rgb(254,127,254)" stroke="rgb(254,127,254)" stroke-width="1" opacity="1" d="M 212.5 177 L 211.5 179 L 212.5 177 Z "/><path fill="rgb(254,127,254)" stroke="rgb(254,127,254)" stroke-width="1" opacity="1" d="M 189.5 184 L 190.5 186 L 189.5 184 Z "/><path fill="rgb(254,127,254)" stroke="rgb(254,127,254)" stroke-width="1" opacity="1" d="M 185.5 185 L 186.5 187 L 185.5 185 Z "/><path fill="rgb(254,127,254)" stroke="rgb(254,127,254)" stroke-width="1" opacity="1" d="M 203.5 186 L 202.5 188 L 203.5 186 Z "/><path fill="rgb(254,127,254)" stroke="rgb(254,127,254)" stroke-width="1" opacity="1" d="M 191.5 189 L 192.5 191 L 191.5 189 Z "/><path fill="rgb(254,127,254)" stroke="rgb(254,127,254)" stroke-width="1" opacity="1" d="M 195.5 193 L 197.5 196 L 195.5 193 Z "/><path fill="rgb(254,254,254)" stroke="rgb(254,254,254)" stroke-width="1" opacity="1" d="M 10.5 3 L 15.5 4 Q 17.2 1.3 23.5 3 L 24.5 4 L 319 4 L 319 211.5 L 317.5 213 L 6.5 213 L 5 211.5 L 5 5.5 L 6.5 4 L 10.5 3 Z M 116 22 L 116 25 L 120 26 Q 122 25 121 30 L 121 32 L 120 33 L 118 68 Q 117 70 114 69 L 112 72 L 126 72 L 127 73 Q 129 74 128 71 Q 127 68 123 69 L 124 38 L 126 33 L 142 71 L 144 70 L 159 33 L 161 66 L 162 68 Q 161 70 158 69 L 156 72 Q 157 74 159 72 L 172 72 L 174 73 L 175 71 L 172 69 L 169 66 L 169 55 L 168 54 L 168 43 L 167 42 L 167 32 L 166 26 L 172 25 L 172 22 L 159 22 L 144 60 L 130 24 L 129 22 L 116 22 Z M 189 35 L 181 39 L 182 44 Q 180 49 186 47 L 187 39 Q 195 38 198 40 L 199 43 L 199 53 L 190 53 L 181 57 L 179 62 L 179 68 L 185 73 Q 196 75 200 69 L 201 72 L 202 73 L 211 73 L 212 71 Q 211 68 207 69 L 207 47 L 205 40 Q 201 33 189 35 Z M 76 82 L 73 83 L 72 89 L 77 92 L 81 89 L 80 83 L 76 82 Z M 248 82 L 245 83 L 244 89 L 249 92 L 253 89 L 252 84 Q 251 81 248 82 Z M 30 84 L 30 87 L 35 88 L 35 131 L 30 131 L 30 135 L 34 134 L 65 134 L 65 123 L 63 121 L 61 123 L 60 130 L 43 130 L 43 89 L 49 86 L 49 84 L 30 84 Z M 167 94 L 159 99 L 156 98 Q 145 97 141 101 L 136 109 Q 135 114 138 117 L 143 121 L 140 125 Q 139 130 142 132 L 141 132 L 136 138 L 137 146 L 145 150 Q 159 152 166 146 L 169 142 L 168 133 L 166 130 L 160 128 L 149 127 L 148 126 Q 143 127 145 122 L 157 122 L 161 120 L 166 114 Q 168 104 162 102 L 164 100 L 170 99 L 169 96 Q 170 93 167 94 Z M 114 97 L 104 101 L 104 103 L 103 98 L 92 99 L 90 101 L 92 103 Q 96 102 96 104 L 96 130 L 93 131 L 91 135 L 93 134 L 105 134 L 106 135 L 108 134 Q 110 129 104 131 L 104 110 L 103 108 Q 105 101 116 103 L 119 109 L 119 130 L 116 131 L 114 134 L 129 134 L 131 135 Q 133 129 128 131 L 126 130 L 126 104 L 125 102 L 119 97 L 114 97 Z M 188 97 L 180 101 L 174 110 Q 175 114 173 116 L 176 128 L 186 135 Q 197 137 202 132 L 203 128 L 197 131 Q 189 132 186 129 L 183 126 L 181 118 L 182 115 L 204 115 Q 205 107 201 102 Q 198 96 188 97 Z M 230 97 L 222 104 L 221 98 L 210 99 L 208 101 L 210 103 Q 214 102 214 104 L 214 130 L 211 131 L 209 135 L 212 134 L 226 134 L 228 135 Q 230 129 224 131 Q 219 129 222 128 L 222 112 L 221 111 L 224 106 Q 226 102 231 102 Q 229 107 233 109 Q 239 111 236 104 L 236 102 L 237 98 Q 235 96 230 97 Z M 278 97 L 268 102 L 264 110 L 263 115 L 266 128 L 276 135 Q 287 137 292 132 L 293 128 L 286 131 Q 279 132 276 129 L 273 126 L 271 117 L 273 115 L 294 115 Q 295 107 291 102 Q 288 96 278 97 Z M 76 98 Q 74 100 70 99 L 68 102 Q 69 104 74 103 L 74 131 L 71 131 L 69 134 Q 70 136 72 134 L 85 134 L 86 135 L 86 131 L 82 130 L 82 99 Q 82 97 76 98 Z M 247 98 L 241 99 L 240 102 Q 241 104 246 103 L 246 131 L 243 131 L 241 134 Q 242 136 244 134 L 257 134 L 258 135 L 258 131 L 254 130 L 254 99 L 254 98 L 247 98 Z M 206 141 L 201 143 Q 195 146 193 154 L 194 156 L 196 152 Q 195 149 198 150 L 198 148 L 207 144 Q 216 143 219 148 Q 221 147 220 150 L 223 152 L 222 148 L 215 141 L 206 141 Z M 42 142 L 33 146 L 34 147 L 39 147 L 39 160 L 36 159 Q 24 158 20 163 L 14 173 Q 12 185 17 192 Q 20 197 28 198 Q 36 198 40 193 L 40 196 L 42 197 L 51 197 L 52 194 L 49 193 L 47 193 L 47 143 L 42 142 Z M 77 144 L 73 150 L 59 192 L 57 193 Q 51 191 53 197 L 55 196 L 67 196 L 68 197 L 68 193 Q 64 194 63 192 L 67 181 L 69 179 L 84 179 L 89 192 Q 88 194 85 193 L 83 197 L 86 196 L 103 196 L 103 195 Q 102 192 99 193 L 95 188 L 79 146 L 77 144 Z M 173 145 L 166 148 L 163 154 L 164 156 L 166 152 L 172 149 L 175 149 L 178 148 Q 185 148 189 152 L 192 159 L 193 159 L 190 151 Q 186 143 173 145 Z M 224 152 L 223 155 L 224 155 L 224 152 Z M 163 156 L 162 159 L 163 159 L 163 156 Z M 127 159 L 119 164 L 117 164 L 117 160 L 106 161 L 104 163 L 106 165 Q 110 164 110 166 L 110 192 L 105 195 L 106 197 L 107 196 L 120 196 Q 121 198 122 196 Q 123 191 118 193 L 118 175 L 117 174 L 118 169 Q 120 163 130 165 L 132 169 L 132 192 L 127 195 L 129 197 L 131 196 L 142 196 L 143 197 Q 145 198 144 196 Q 146 194 144 193 L 140 193 L 140 169 Q 142 164 151 165 L 153 169 L 153 193 L 149 193 L 149 197 L 151 196 L 164 196 L 165 197 L 166 195 L 163 193 L 161 192 L 161 168 L 159 163 L 153 159 Q 142 159 139 165 L 138 164 Q 135 158 127 159 Z M 287 159 L 279 166 L 278 160 L 267 161 L 265 163 L 265 165 L 271 165 L 271 166 L 271 192 L 268 193 L 266 197 L 269 196 L 283 196 L 285 197 Q 287 191 281 193 L 279 192 L 278 177 L 278 175 L 280 169 L 286 164 L 288 164 L 288 170 L 292 171 L 293 170 L 294 160 Q 292 158 287 159 Z M 224 160 L 216 172 L 210 176 Q 202 182 198 192 L 190 184 L 169 173 L 163 165 L 162 165 Q 163 171 166 175 Q 173 181 184 184 L 194 191 L 198 196 L 204 186 L 212 179 L 221 170 L 222 167 Q 223 164 227 165 L 227 191 L 229 195 L 233 197 L 242 197 L 250 192 Q 252 193 251 197 L 261 197 L 262 196 L 261 193 L 257 193 L 257 160 Q 249 159 244 163 L 246 165 L 249 166 L 249 188 L 243 192 L 237 191 L 234 187 L 234 160 L 228 160 L 227 161 L 224 160 Z "/><path fill="rgb(254,254,254)" stroke="rgb(254,254,254)" stroke-width="1" opacity="1" d="M 192.5 56 L 199 56 L 199 65.5 Q 197.1 70.1 189.5 69 Q 185.3 67.3 187 59.5 L 192.5 56 Z "/><path fill="rgb(254,254,254)" stroke="rgb(254,254,254)" stroke-width="1" opacity="1" d="M 149.5 101 Q 155.9 100.6 158 104.5 L 159 113.5 L 154.5 119 L 148.5 119 L 145 117 Q 142.3 114.4 143 107.5 L 145 103 L 149.5 101 Z "/><path fill="rgb(254,254,254)" stroke="rgb(254,254,254)" stroke-width="1" opacity="1" d="M 188.5 101 Q 194.8 99.8 196 103.5 L 197 111 Q 187.3 109.8 182 112 Q 182 105.3 186.5 102 L 188.5 101 Z "/><path fill="rgb(254,254,254)" stroke="rgb(254,254,254)" stroke-width="1" opacity="1" d="M 278.5 101 Q 284.8 99.8 286 103.5 Q 285.4 108.9 287 111 Q 277.3 109.8 272 112 L 275 103 L 278.5 101 Z "/><path fill="rgb(254,254,254)" stroke="rgb(254,254,254)" stroke-width="1" opacity="1" d="M 144.5 133 L 155.5 134 L 162 137.5 Q 163.3 143.8 159.5 145 Q 156.2 148.2 148.5 147 L 143 143.5 L 142 136.5 L 144.5 133 Z "/><path fill="rgb(254,254,254)" stroke="rgb(254,254,254)" stroke-width="1" opacity="1" d="M 75.5 156 L 82 175 L 69.5 175 L 69 173.5 L 75.5 156 Z "/><path fill="rgb(254,254,254)" stroke="rgb(254,254,254)" stroke-width="1" opacity="1" d="M 28.5 163 Q 36.5 161.5 39 165.5 L 39 189.5 L 37.5 191 Q 35.2 194.2 28.5 193 L 24 189.5 L 22 185.5 L 22 171.5 L 25 165 L 28.5 163 Z "/></svg>
